<?xml version="1.0" standalone="no"?>
<!DOCTYPE svg PUBLIC "-//W3C//DTD SVG 20010904//EN"
 "http://www.w3.org/TR/2001/REC-SVG-20010904/DTD/svg10.dtd">
<svg version="1.0" xmlns="http://www.w3.org/2000/svg"
 width="434.000000pt" height="127.000000pt" viewBox="0 0 434.000000 127.000000"
 preserveAspectRatio="xMidYMid meet">

<g transform="translate(0.000000,127.000000) scale(0.100000,-0.100000)"
fill="#000000" stroke="none">
<path d="M2719 1261 c-96 -19 -136 -73 -146 -199 l-6 -81 -41 -3 -41 -3 -3
-72 -3 -73 46 0 45 0 0 -259 c0 -143 3 -266 6 -275 5 -13 23 -16 95 -16 l89 0
2 272 3 273 100 5 100 5 0 70 0 70 -104 3 -104 3 6 52 c8 66 23 77 108 77 98
0 99 1 99 80 0 53 -4 69 -16 74 -21 8 -189 6 -235 -3z"/>
<path d="M3256 1259 c-90 -22 -126 -73 -134 -195 l-5 -83 -41 -3 -41 -3 -3
-72 -3 -73 45 0 46 0 2 -272 3 -273 90 0 90 0 5 270 5 270 98 3 97 3 0 74 0
75 -100 0 -100 0 0 44 c0 70 19 85 115 88 l80 3 0 75 0 75 -105 2 c-58 1 -122
-3 -144 -8z"/>
<path d="M110 1199 c-33 -13 -68 -47 -88 -84 -15 -26 -17 -79 -20 -410 -2
-208 0 -390 3 -402 5 -23 8 -24 102 -21 l96 3 12 58 c19 95 6 91 318 97 299 6
320 10 370 69 14 17 29 46 32 64 3 18 5 145 3 282 -3 246 -3 251 -27 284 -49
68 -66 71 -441 70 -198 0 -345 -4 -360 -10z m598 -175 c21 -15 22 -21 22 -193
0 -232 18 -214 -229 -221 -197 -6 -235 -14 -264 -60 -6 -11 -15 -20 -20 -20
-4 0 -7 107 -5 238 2 184 6 243 17 255 12 15 41 17 235 17 184 0 225 -3 244
-16z"/>
<path d="M1085 968 c-3 -7 -4 -164 -3 -348 l3 -335 90 0 90 0 5 220 c3 140 9
227 17 240 33 57 96 84 196 85 l48 0 -3 73 -3 72 -52 3 c-29 2 -70 -2 -93 -8
-45 -12 -105 -60 -117 -93 -6 -17 -9 -7 -13 38 l-5 60 -78 3 c-56 2 -79 -1
-82 -10z"/>
<path d="M1745 971 c-47 -12 -75 -33 -96 -73 -17 -34 -19 -60 -19 -270 0 -262
5 -284 71 -323 32 -19 52 -20 294 -20 243 0 262 1 295 20 19 12 43 36 55 55
19 33 20 52 20 270 0 218 -1 237 -20 270 -12 19 -36 43 -55 55 -32 18 -53 20
-275 22 -132 1 -253 -2 -270 -6z m416 -170 c17 -20 19 -40 19 -171 0 -203 7
-195 -183 -195 -107 0 -148 3 -160 14 -15 11 -17 37 -17 181 0 175 2 182 45
193 11 3 78 5 148 4 122 -2 130 -3 148 -26z"/>
<path d="M3630 735 c0 -263 4 -289 51 -332 35 -31 91 -43 207 -43 132 0 181
12 226 58 l36 35 0 -116 c0 -113 -9 -164 -33 -179 -7 -4 -72 -8 -145 -8 -118
0 -133 2 -138 18 -13 43 -21 47 -85 50 -35 2 -74 0 -88 -3 -22 -6 -23 -9 -18
-62 7 -65 29 -101 78 -125 29 -16 64 -18 255 -18 212 0 223 1 265 23 29 16 52
38 69 68 l25 44 0 415 0 415 -90 0 -90 0 -5 -195 c-7 -266 -6 -265 -197 -265
-70 0 -106 4 -115 13 -10 9 -14 71 -18 230 l-5 217 -92 3 -93 3 0 -246z"/>
</g>
</svg>
